<svg xmlns="http://www.w3.org/2000/svg" xml:space="preserve" viewBox="0 0 32 32">
  <path d="M23.75 32H8.25A8.25 8.25 0 0 1 0 23.75V8.25A8.25 8.25 0 0 1 8.25 0h15.5A8.25 8.25 0 0 1 32 8.25v15.5A8.25 8.25 0 0 1 23.75 32" style="fill:#067acd"/>
  <path d="M25.056 16.25a3.2 3.2 0 0 1 1.604.925q.358.375.615.825c.008.032-1.107.782-1.783 1.199-.025.017-.122-.089-.232-.253a1.45 1.45 0 0 0-1.205-.722c-.777-.053-1.278.354-1.275 1.034a.94.94 0 0 0 .11.481c.171.354.489.566 1.486.998 1.836.79 2.624 1.311 3.111 2.052.557.947.666 2.092.3 3.127a3.44 3.44 0 0 1-2.838 2.032 7.8 7.8 0 0 1-1.954-.02 4.7 4.7 0 0 1-2.61-1.36 4.6 4.6 0 0 1-.668-.989 2 2 0 0 1 .236-.15c.114-.065.546-.313.953-.549l.739-.433.154.225c.26.372.591.689.974.932a2.38 2.38 0 0 0 2.496-.126c.387-.377.448-.978.144-1.425-.199-.285-.606-.525-1.763-1.026a6.36 6.36 0 0 1-2.417-1.483 3.4 3.4 0 0 1-.704-1.282 5.2 5.2 0 0 1-.045-1.637 3.13 3.13 0 0 1 2.63-2.435 6.5 6.5 0 0 1 1.942.06m-6.021 1.071.008 1.049h-3.342v9.489h-2.356v-9.487h-3.342v-1.031q-.013-.53.029-1.058c.012-.017 2.044-.025 4.507-.02l4.483.012z" style="fill:#fff"/>
</svg>
