<?xml version="1.0" encoding="utf-8"?>
<!-- Generator: Adobe Illustrator 28.4.1, SVG Export Plug-In . SVG Version: 6.00 Build 0)  -->
<svg version="1.1" id="Layer_1" xmlns="http://www.w3.org/2000/svg" xmlns:xlink="http://www.w3.org/1999/xlink" x="0px" y="0px"
	 viewBox="0 0 512 512" style="enable-background:new 0 0 512 512;" xml:space="preserve">
<style type="text/css">
	.st0{fill:url(#SVGID_1_);}
	.st1{fill:url(#SVGID_00000047020032274484435690000001679454166742646719_);}
	.st2{fill:url(#SVGID_00000168837445942159767380000014316988421344456638_);}
	.st3{fill:url(#SVGID_00000017485618872301444870000005422235589927254701_);}
	.st4{fill:url(#SVGID_00000181088365292921794170000011525108037116521630_);}
	.st5{fill:url(#SVGID_00000176746021036140798560000008915707406081239983_);}
	.st6{fill:url(#SVGID_00000132061097892107316370000001644781226771210423_);}
</style>
<g id="Layer_3">
	<g>
		
			<linearGradient id="SVGID_1_" gradientUnits="userSpaceOnUse" x1="388.6032" y1="381.0816" x2="497.7975" y2="381.0816" gradientTransform="matrix(1 0 0 -1 0 512)">
			<stop  offset="0" style="stop-color:#843AFF"/>
			<stop  offset="0.8342" style="stop-color:#E57EFF"/>
		</linearGradient>
		<path class="st0" d="M414.3,154.5h68.5c8.2,0,15-10.5,15-23.6s-6.7-23.6-15-23.6h-94.2C397.2,123.2,405.8,138.8,414.3,154.5z"/>
		
			<linearGradient id="SVGID_00000044873458917934495480000002553493977481566358_" gradientUnits="userSpaceOnUse" x1="430.8644" y1="266.895" x2="497.826" y2="266.895" gradientTransform="matrix(1 0 0 -1 0 512)">
			<stop  offset="0" style="stop-color:#843AFF"/>
			<stop  offset="0.8342" style="stop-color:#E57EFF"/>
		</linearGradient>
		<path style="fill:url(#SVGID_00000044873458917934495480000002553493977481566358_);" d="M497.8,245.2L497.8,245.2
			c0-12.9-6.7-23.6-15-23.6h-52c11,16.2,20.4,31.6,31.7,47h20.2C491.1,268.8,497.8,258.1,497.8,245.2z"/>
		
			<linearGradient id="SVGID_00000016762254975692555680000008725953688356834978_" gradientUnits="userSpaceOnUse" x1="2.3152" y1="380.9879" x2="204.9854" y2="380.9879" gradientTransform="matrix(1 0 0 -1 0 512)">
			<stop  offset="0" style="stop-color:#843AFF"/>
			<stop  offset="0.8342" style="stop-color:#E57EFF"/>
		</linearGradient>
		<path style="fill:url(#SVGID_00000016762254975692555680000008725953688356834978_);" d="M17.3,154.5H205
			c-7.1-11.2-11.7-30.4-11-47H17.3c-8.2,0-15,10.5-15,23.6S9.1,154.5,17.3,154.5z"/>
		
			<linearGradient id="SVGID_00000142175655921951837020000013454266340900271753_" gradientUnits="userSpaceOnUse" x1="2.3152" y1="266.7088" x2="346.0925" y2="266.7088" gradientTransform="matrix(1 0 0 -1 0 512)">
			<stop  offset="0" style="stop-color:#843AFF"/>
			<stop  offset="0.8342" style="stop-color:#E57EFF"/>
		</linearGradient>
		<path style="fill:url(#SVGID_00000142175655921951837020000013454266340900271753_);" d="M17.3,268.8h328.8
			c-13-18.8-21.7-30.9-31.7-47H17.3c-8.2,0-15,10.5-15,23.6l0,0C2.4,258.1,9.1,268.8,17.3,268.8z"/>
		
			<linearGradient id="SVGID_00000021828422862637719990000005048438167325107869_" gradientUnits="userSpaceOnUse" x1="2.3152" y1="152.6171" x2="422.7785" y2="152.6171" gradientTransform="matrix(1 0 0 -1 0 512)">
			<stop  offset="0" style="stop-color:#843AFF"/>
			<stop  offset="0.8342" style="stop-color:#E57EFF"/>
		</linearGradient>
		<path style="fill:url(#SVGID_00000021828422862637719990000005048438167325107869_);" d="M17.3,382.9h405.5
			c-10.2-15-21-31.2-30.5-47h-375c-8.2,0-15,10.5-15,23.6C2.3,372.6,9.1,382.9,17.3,382.9z"/>
		
			<linearGradient id="SVGID_00000154383835180615203170000015207168753765662089_" gradientUnits="userSpaceOnUse" x1="6.1257" y1="38.4328" x2="497.7975" y2="38.4328" gradientTransform="matrix(1 0 0 -1 0 512)">
			<stop  offset="0" style="stop-color:#843AFF"/>
			<stop  offset="0.8342" style="stop-color:#E57EFF"/>
		</linearGradient>
		<path style="fill:url(#SVGID_00000154383835180615203170000015207168753765662089_);" d="M482.7,450c-3.7,0-461.6,0-461.6,0
			c-8.2,0-15,10.5-15,23.6c0,13.1,6.7,23.6,15,23.6l461.6,0c5.7,0,15.1-10.8,15.1-24.5C497.8,459,488.5,450,482.7,450z"/>
	</g>
</g>
<g id="Layer_1_00000010309809663560898740000002040947026881153192_">
	<g>
		
			<linearGradient id="SVGID_00000020375081780754100960000017934193141746722985_" gradientUnits="userSpaceOnUse" x1="192.3618" y1="305.8465" x2="526.2526" y2="305.8465" gradientTransform="matrix(0.9935 0.1142 0.1142 -0.9935 -31.6582 469.5447)">
			<stop  offset="0" style="stop-color:#843AFF"/>
			<stop  offset="0.8342" style="stop-color:#E57EFF"/>
		</linearGradient>
		<path style="fill:url(#SVGID_00000020375081780754100960000017934193141746722985_);" d="M274.2,19.2
			c13.5,19.9,26.8,39.9,40.7,59.6c5.1,7.1,3.2,11.9,0.3,20.1c-1.6,5-3.5,7.5-7.6,11.8c-4.2,4.4-7,6.3-12.6,8.4
			c-7,2.7-12,3.3-17.8,2.4c-9.3-1.5-11.5-2.8-16.1-8c-4.6-5.2-22.4-36.7-37.8-59.8c-16.7,19.5-21,41.6-18.2,65.4
			c2.6,22.4,19.5,48.4,28.7,57c9.2,8.6,22.3,15.5,35.9,19.2c14.5,3.9,29.4,4.8,45.2,4.1c3.6,5.4,7.2,11.3,11.1,16.9
			c35.9,53,74.3,109.7,115.1,170.5c6.6,9.7,14.3,16.7,26.5,17.4c16.2,0.9,28.4-5.5,36.7-19.8c7.2-12.4,7.2-24-0.9-35.8
			c-42.7-63-85.3-126.2-128.1-189.2c3.4-10.4,9.9-25,11.7-38.8c2.4-18.7-0.8-36-8.6-52.2c-6.2-12.7-14.4-25-26-33.8
			c-7.8-6.1-16.8-11.6-26.1-14.5C309.6,14.7,291.9,12,274.2,19.2z"/>
	</g>
</g>
</svg>
